<svg width="24" height="24" viewBox="0 0 24 24" fill="none" xmlns="http://www.w3.org/2000/svg">
<path d="M16.2788 3.23291C17.7347 3.24931 19.1204 3.86562 20.1132 4.93835C21.106 6.01108 21.6192 7.44659 21.5346 8.8672L21.5333 14.865C21.6192 16.329 21.106 17.7645 20.1132 18.8372C19.1204 19.9099 17.7347 20.5262 16.2707 20.5426H7.5575C4.50951 20.5426 2.31055 18.0794 2.31055 14.9084V8.8672C2.31055 5.69619 4.50951 3.23291 7.5575 3.23291H16.2788ZM16.2626 4.70268H7.5575C5.35205 4.70268 3.7698 6.47517 3.7698 8.8672V14.9084C3.7698 17.3004 5.35205 19.0729 7.5575 19.0729H16.2626C17.3193 19.061 18.3252 18.6137 19.0458 17.835C19.7664 17.0563 20.1389 16.0144 20.0753 14.9084L20.0766 8.82385C20.1389 7.7612 19.7664 6.71922 19.0458 5.94056C18.3252 5.1619 17.3193 4.71455 16.2626 4.70268ZM17.7201 8.65506C17.949 8.94312 17.9278 9.35153 17.6856 9.61396L17.6064 9.68805L13.6569 12.8721C12.6977 13.6252 11.3723 13.6629 10.3721 12.9817L10.217 12.8682L6.24107 9.68995C5.92543 9.43764 5.87262 8.97538 6.12312 8.65745C6.35085 8.36843 6.75084 8.29819 7.05883 8.47738L7.1482 8.53865L11.1191 11.7129C11.5643 12.0624 12.1747 12.0893 12.6395 11.7982L12.7524 11.7188L16.6945 8.54055C17.0091 8.28692 17.4683 8.33819 17.7201 8.65506Z" fill="#3F3F46"/>
</svg>
